HIERARCHY
ROOT reference
{
  OFFSET 0 0 0
  CHANNELS 6 Xposition Yposition Zposition Zrotation Xrotation Yrotation
  JOINT Hips
  {
    OFFSET 370.543 87.5 183.721
    CHANNELS 3 Zrotation Xrotation Yrotation
    JOINT RightUpLeg
    {
      OFFSET -9.29072 -1.53718 -0.00769521
      CHANNELS 3 Zrotation Xrotation Yrotation
      JOINT RightLeg
      {
        OFFSET 0.000649198 -41.8926 0.0287464
        CHANNELS 3 Zrotation Xrotation Yrotation
        JOINT RightFoot
        {
          OFFSET -0.131981 -42.8927 0.241786
          CHANNELS 3 Zrotation Xrotation Yrotation
          End Site
          {
            OFFSET 0 -7.69 17.5
          }
        }
      }
    }
    JOINT LeftUpLeg
    {
      OFFSET 9.29816 -1.6623 -0.0330144
      CHANNELS 3 Zrotation Xrotation Yrotation
      JOINT LeftLeg
      {
        OFFSET 0.0555409 -41.8801 -0.0492089
        CHANNELS 3 Zrotation Xrotation Yrotation
        JOINT LeftFoot
        {
          OFFSET 0.737583 -41.1094 -0.206555
          CHANNELS 3 Zrotation Xrotation Yrotation
          End Site
          {
            OFFSET 0 -7.69 17.5
          }
        }
      }
    }
    JOINT Spine
    {
      OFFSET 0.0742767 14.2946 0.0485675
      CHANNELS 3 Zrotation Xrotation Yrotation
      JOINT Spine1
      {
        OFFSET 0.0332084 9.70841 0.0159593
        CHANNELS 3 Zrotation Xrotation Yrotation
        JOINT Spine2
        {
          OFFSET 0.0388468 10.1231 0.00288192
          CHANNELS 3 Zrotation Xrotation Yrotation
          JOINT Spine3
          {
            OFFSET 0.0300771 9.71993 0.00776905
            CHANNELS 3 Zrotation Xrotation Yrotation
            JOINT Neck
            {
              OFFSET 0.058413 10.382 0.0516165
              CHANNELS 3 Zrotation Xrotation Yrotation
              JOINT Head
              {
                OFFSET 0.0298281 9.47849 0.0268718
                CHANNELS 3 Zrotation Xrotation Yrotation
                End Site
                {
                  OFFSET 0 15.95 0
                }
              }
            }
            JOINT RightShoulder
            {
              OFFSET -3.15612 6.91385 0.0353801
              CHANNELS 3 Zrotation Xrotation Yrotation
              JOINT RightArm
              {
                OFFSET -12.7781 -0.0057607 0.0332486
                CHANNELS 3 Zrotation Xrotation Yrotation
                JOINT RightForeArm
                {
                  OFFSET -26.4999 -0.0425897 0.0409183
                  CHANNELS 3 Zrotation Xrotation Yrotation
                  JOINT RightHand
                  {
                    OFFSET -25.993 -0.0294641 0.00108206
                    CHANNELS 3 Zrotation Xrotation Yrotation
                    JOINT RightHandThumb1
                    {
                      OFFSET -2.48905 0.190105 3.12053
                      CHANNELS 3 Zrotation Xrotation Yrotation
                      JOINT RightHandThumb2
                      {
                        OFFSET -3.68274 0 0
                        CHANNELS 3 Zrotation Xrotation Yrotation
                        JOINT RightHandThumb3
                        {
                          OFFSET -2.55832 0 0
                          CHANNELS 3 Zrotation Xrotation Yrotation
                          End Site
                          {
                            OFFSET -2.194 0 0
                          }
                        }
                      }
                    }
                    JOINT RightInHandIndex
                    {
                      OFFSET -3.22368 0.508421 1.97842
                      CHANNELS 3 Zrotation Xrotation Yrotation
                      JOINT RightHandIndex1
                      {
                        OFFSET -5.21684 -0.091368 0.999158
                        CHANNELS 3 Zrotation Xrotation Yrotation
                        JOINT RightHandIndex2
                        {
                          OFFSET -3.61937 0 0
                          CHANNELS 3 Zrotation Xrotation Yrotation
                          JOINT RightHandIndex3
                          {
                            OFFSET -2.0521 0 0
                            CHANNELS 3 Zrotation Xrotation Yrotation
                            End Site
                            {
                              OFFSET -1.805 0 0
                            }
                          }
                        }
                      }
                    }
                    JOINT RightInHandMiddle
                    {
                      OFFSET -3.38211 0.517263 0.756737
                      CHANNELS 3 Zrotation Xrotation Yrotation
                      JOINT RightHandMiddle1
                      {
                        OFFSET -5.17411 -0.084 0.313895
                        CHANNELS 3 Zrotation Xrotation Yrotation
                        JOINT RightHandMiddle2
                        {
                          OFFSET -3.94947 0 0
                          CHANNELS 3 Zrotation Xrotation Yrotation
                          JOINT RightHandMiddle3
                          {
                            OFFSET -2.47579 0 0
                            CHANNELS 3 Zrotation Xrotation Yrotation
                            End Site
                            {
                              OFFSET -1.975 0 0
                            }
                          }
                        }
                      }
                    }
                    JOINT RightInHandRing
                    {
                      OFFSET -3.36516 0.537895 -0.128947
                      CHANNELS 3 Zrotation Xrotation Yrotation
                      JOINT RightHandRing1
                      {
                        OFFSET -4.63474 -0.022105 -0.478947
                        CHANNELS 3 Zrotation Xrotation Yrotation
                        JOINT RightHandRing2
                        {
                          OFFSET -3.44238 0 0
                          CHANNELS 3 Zrotation Xrotation Yrotation
                          JOINT RightHandRing3
                          {
                            OFFSET -2.3881 0 0
                            CHANNELS 3 Zrotation Xrotation Yrotation
                            End Site
                            {
                              OFFSET -1.857 0 0
                            }
                          }
                        }
                      }
                    }
                    JOINT RightInHandPinky
                    {
                      OFFSET -3.16105 0.469368 -1.20179
                      CHANNELS 3 Zrotation Xrotation Yrotation
                      JOINT RightHandPinky1
                      {
                        OFFSET -4.14105 -0.022105 -1.09053
                        CHANNELS 3 Zrotation Xrotation Yrotation
                        JOINT RightHandPinky2
                        {
                          OFFSET -2.75653 0 0
                          CHANNELS 3 Zrotation Xrotation Yrotation
                          JOINT RightHandPinky3
                          {
                            OFFSET -1.74189 0 0
                            CHANNELS 3 Zrotation Xrotation Yrotation
                            End Site
                            {
                              OFFSET -1.645 0 0
                            }
                          }
                        }
                      }
                    }
                  }
                }
              }
            }
            JOINT LeftShoulder
            {
              OFFSET 3.24463 6.9123 -0.0189685
              CHANNELS 3 Zrotation Xrotation Yrotation
              JOINT LeftArm
              {
                OFFSET 12.8793 -0.0485389 -0.0634723
                CHANNELS 3 Zrotation Xrotation Yrotation
                JOINT LeftForeArm
                {
                  OFFSET 26.4894 0.00252616 -0.136149
                  CHANNELS 3 Zrotation Xrotation Yrotation
                  JOINT LeftHand
                  {
                    OFFSET 26.005 0.0292639 -0.0166184
                    CHANNELS 3 Zrotation Xrotation Yrotation
                    JOINT LeftHandThumb1
                    {
                      OFFSET 2.48905 0.190105 3.12053
                      CHANNELS 3 Zrotation Xrotation Yrotation
                      JOINT LeftHandThumb2
                      {
                        OFFSET 3.68274 0 0
                        CHANNELS 3 Zrotation Xrotation Yrotation
                        JOINT LeftHandThumb3
                        {
                          OFFSET 2.55832 0 0
                          CHANNELS 3 Zrotation Xrotation Yrotation
                          End Site
                          {
                            OFFSET 2.194 0 0
                          }
                        }
                      }
                    }
                    JOINT LeftInHandIndex
                    {
                      OFFSET 3.22368 0.508421 1.97842
                      CHANNELS 3 Zrotation Xrotation Yrotation
                      JOINT LeftHandIndex1
                      {
                        OFFSET 5.21684 -0.091368 0.999158
                        CHANNELS 3 Zrotation Xrotation Yrotation
                        JOINT LeftHandIndex2
                        {
                          OFFSET 3.61937 0 0
                          CHANNELS 3 Zrotation Xrotation Yrotation
                          JOINT LeftHandIndex3
                          {
                            OFFSET 2.0521 0 0
                            CHANNELS 3 Zrotation Xrotation Yrotation
                            End Site
                            {
                              OFFSET 1.805 0 0
                            }
                          }
                        }
                      }
                    }
                    JOINT LeftInHandMiddle
                    {
                      OFFSET 3.38211 0.517263 0.756737
                      CHANNELS 3 Zrotation Xrotation Yrotation
                      JOINT LeftHandMiddle1
                      {
                        OFFSET 5.17411 -0.084 0.313895
                        CHANNELS 3 Zrotation Xrotation Yrotation
                        JOINT LeftHandMiddle2
                        {
                          OFFSET 3.94947 0 0
                          CHANNELS 3 Zrotation Xrotation Yrotation
                          JOINT LeftHandMiddle3
                          {
                            OFFSET 2.47579 0 0
                            CHANNELS 3 Zrotation Xrotation Yrotation
                            End Site
                            {
                              OFFSET 1.975 0 0
                            }
                          }
                        }
                      }
                    }
                    JOINT LeftInHandRing
                    {
                      OFFSET 3.36516 0.537895 -0.128947
                      CHANNELS 3 Zrotation Xrotation Yrotation
                      JOINT LeftHandRing1
                      {
                        OFFSET 4.63474 -0.022105 -0.478947
                        CHANNELS 3 Zrotation Xrotation Yrotation
                        JOINT LeftHandRing2
                        {
                          OFFSET 3.44238 0 0
                          CHANNELS 3 Zrotation Xrotation Yrotation
                          JOINT LeftHandRing3
                          {
                            OFFSET 2.3881 0 0
                            CHANNELS 3 Zrotation Xrotation Yrotation
                            End Site
                            {
                              OFFSET 1.857 0 0
                            }
                          }
                        }
                      }
                    }
                    JOINT LeftInHandPinky
                    {
                      OFFSET 3.16105 0.469368 -1.20179
                      CHANNELS 3 Zrotation Xrotation Yrotation
                      JOINT LeftHandPinky1
                      {
                        OFFSET 4.14105 -0.022105 -1.09053
                        CHANNELS 3 Zrotation Xrotation Yrotation
                        JOINT LeftHandPinky2
                        {
                          OFFSET 2.75653 0 0
                          CHANNELS 3 Zrotation Xrotation Yrotation
                          JOINT LeftHandPinky3
                          {
                            OFFSET 1.74189 0 0
                            CHANNELS 3 Zrotation Xrotation Yrotation
                            End Site
                            {
                              OFFSET 1.645 0 0
                            }
                          }
                        }
                      }
                    }
                  }
                }
              }
            }
          }
        }
      }
    }
  }
}
MOTION
Frames: 2
Frame Time: 0.00833333
6.000000000000000000e+02 0.000000000000000000e+00 0.000000000000000000e+00 0.000000000000000000e+00 0.000000000000000000e+00 0.000000000000000000e+00 -8.743598284365726725e-01 3.838451207523952968e-01 -7.474031346565500611e-01 1.142893727606943077e+00 4.181330090844848080e-01 7.148531444080005182e-01 9.113747578614395106e-01 1.580847457216622287e-01 -1.033165482864313534e+00 1.134805073509945084e+00 -1.095871224650884351e-01 9.608894365169332596e-01 5.531274371536388790e-01 1.305056163906698430e+00 9.096577841891836380e-01 -5.671826662911105821e-02 3.987579619638931261e-01 4.887849768017146074e-02 -1.628105343330939481e-01 -9.341469966248533430e-01 -6.996659439743707631e-02 4.493162160571860242e-01 2.578634085014855915e-01 1.213742986014323816e-01 1.118484538675736245e-01 9.461115174339349010e-02 5.349714227735484495e-02 1.773082628608354250e-01 1.993921178207490319e-01 8.958496709146188119e-02 1.052400990795191935e-02 -1.623330523230809841e-01 7.444198369051829856e-02 -3.091345666254530222e-01 2.747845113108871029e-01 -1.178049422267833046e+00 3.127686975411814174e-01 -1.203241750070612515e+00 1.999602903181356917e+00 -4.893712989587476470e-01 -1.368544178833600022e-01 1.048277514423576473e-01 -9.160939943311560141e-01 -3.836614261160710360e+00 3.664034592040166238e-01 -3.621454987364187694e+00 6.325553264110610030e+00 -9.233797687990175973e+00 -1.671627271744889898e-01 -1.481004291923986527e+00 -4.215304149738405837e-01 0.000000000000000000e+00 0.000000000000000000e+00 0.000000000000000000e+00 -7.254295297213088943e-15 -2.138879187341280305e-15 0.000000000000000000e+00 -7.142090824250679869e-15 -8.168163105892926074e-16 0.000000000000000000e+00 -1.708805209317829108e-15 2.863470600443170870e-15 -1.686610638793335177e-16 0.000000000000000000e+00 0.000000000000000000e+00 0.000000000000000000e+00 0.000000000000000000e+00 -4.520281063803385537e-15 -6.268306428057534289e-15 0.000000000000000000e+00 -4.126256676944696676e-15 -1.145625477704089583e-14 -1.708805209317829108e-15 2.863470600443170870e-15 -1.686610638793335177e-16 0.000000000000000000e+00 -1.775071193238549577e-15 -5.468616199381175694e-15 0.000000000000000000e+00 -2.653567259589201222e-16 -1.516591014432972414e-14 0.000000000000000000e+00 -4.416154972907786731e-15 -1.261744060621486795e-14 -1.708805209317829108e-15 2.863470600443170870e-15 -1.686610638793335177e-16 0.000000000000000000e+00 0.000000000000000000e+00 0.000000000000000000e+00 0.000000000000000000e+00 8.968264385906722552e-16 -1.261476908334428178e-14 0.000000000000000000e+00 -1.406211352546147357e-15 -1.455668608347681313e-14 -1.708805209317829108e-15 2.863470600443170870e-15 -1.686610638793335177e-16 0.000000000000000000e+00 0.000000000000000000e+00 0.000000000000000000e+00 0.000000000000000000e+00 -3.565079124761915567e-15 -2.099327439680025517e-14 0.000000000000000000e+00 -4.188613858693628328e-15 -9.867279497081390334e-15 3.641678374821351039e-01 -5.793755164539091673e-01 -1.509609580340591561e+00 2.130867166405193025e+00 -1.309630381635434659e+00 -2.286168331180502111e+00 -3.648923727684443286e-01 -1.760955674713581942e+00 1.550499041705852843e+00 3.647067884900754287e-01 -7.307913347862524667e-01 2.158462751552071790e+00 0.000000000000000000e+00 0.000000000000000000e+00 0.000000000000000000e+00 -2.955805798976505601e-15 5.545744637316252026e-16 0.000000000000000000e+00 -2.698211455598731870e-15 5.459127162162523865e-15 0.000000000000000000e+00 -2.581108674864866243e-16 1.378223020828497801e-15 -1.346103527849758323e-15 0.000000000000000000e+00 0.000000000000000000e+00 0.000000000000000000e+00 0.000000000000000000e+00 2.494365119662106847e-15 8.020398045862383613e-17 0.000000000000000000e+00 2.051540110232308673e-15 -6.154383901865798545e-15 -2.581108674864866243e-16 1.378223020828497801e-15 -1.346103527849758323e-15 0.000000000000000000e+00 8.275605310920793989e-16 -2.523992369688200938e-15 0.000000000000000000e+00 4.997992738650423357e-16 1.476402870091585583e-16 0.000000000000000000e+00 -1.547494066032244891e-15 1.819435951319700177e-15 -2.581108674864866243e-16 1.378223020828497801e-15 -1.346103527849758323e-15 0.000000000000000000e+00 0.000000000000000000e+00 0.000000000000000000e+00 0.000000000000000000e+00 7.596257947004635461e-16 1.189130914440106653e-15 0.000000000000000000e+00 1.094394695128786634e-15 1.843714524187138899e-15 -2.581108674864866243e-16 1.378223020828497801e-15 -1.346103527849758323e-15 0.000000000000000000e+00 0.000000000000000000e+00 0.000000000000000000e+00 0.000000000000000000e+00 -5.131446687557482711e-16 1.043344657838744030e-15 0.000000000000000000e+00 -4.461063137289909956e-16 1.617998121656092583e-15
6.000000000000000000e+02 0.000000000000000000e+00 0.000000000000000000e+00 0.000000000000000000e+00 0.000000000000000000e+00 0.000000000000000000e+00 -8.115083036288252005e-01 4.227628444495926674e-01 -6.839528505230915156e-01 1.120025123582720994e+00 3.522675364793734221e-01 6.815123913921684595e-01 8.869934848093200541e-01 1.794078295865401129e-01 -1.037407819700161715e+00 1.096186195654907269e+00 -1.058887747893044740e-01 9.178787943793669246e-01 5.774057233257330335e-01 1.199175448012544942e+00 8.728407422120744164e-01 -4.597093887161456116e-02 3.956430547475137671e-01 1.008957479741236576e-02 -1.628073615614555325e-01 -8.898676100543627676e-01 -4.610108153711708207e-02 4.288262018730245040e-01 2.431454206472507817e-01 1.192087776559828810e-01 1.064214156543262790e-01 9.142093677793665385e-02 5.174763231401782737e-02 1.702613700617859049e-01 1.913196765809043187e-01 8.619514256071150737e-02 1.264601950265345845e-02 -1.595029029316979430e-01 6.834834610033951874e-02 -2.992267843616329692e-01 2.779535074924913141e-01 -1.170126586855663842e+00 3.321823196089942476e-01 -1.197411815053798012e+00 1.894796941333016571e+00 -5.014922722934963550e-01 -1.207595725711967660e-01 1.481821850799840412e-01 -1.023767740459022413e+00 -3.724559068900053393e+00 2.942860293135881600e-01 -3.662477338724243303e+00 5.941240523820226827e+00 -8.999532332391115830e+00 -2.161808205527149529e-01 -1.372793070119646908e+00 -5.130317522977396738e-01 0.000000000000000000e+00 0.000000000000000000e+00 0.000000000000000000e+00 -5.110280050988011872e-15 -1.646039791882628244e-15 0.000000000000000000e+00 -4.060925194641117571e-15 -1.190421075727294777e-15 0.000000000000000000e+00 -1.381739223423856096e-15 2.052447637129655920e-15 -3.926031629659532485e-16 0.000000000000000000e+00 0.000000000000000000e+00 0.000000000000000000e+00 0.000000000000000000e+00 -3.794173021166495060e-15 -2.818481772638212842e-15 0.000000000000000000e+00 -3.568255922458927631e-15 -6.958704109008319111e-15 -1.381739223423856096e-15 2.052447637129655920e-15 -3.926031629659532485e-16 0.000000000000000000e+00 -1.887012682450327184e-15 -4.512116012929650696e-15 0.000000000000000000e+00 6.654011118977783803e-16 -1.198874072899223562e-14 0.000000000000000000e+00 -3.202364892380405671e-15 -9.233349651772308659e-15 -1.381739223423856096e-15 2.052447637129655920e-15 -3.926031629659532485e-16 0.000000000000000000e+00 0.000000000000000000e+00 0.000000000000000000e+00 0.000000000000000000e+00 1.049858768018717746e-15 -1.055955245834538765e-14 0.000000000000000000e+00 -1.268534660387044422e-16 -1.103094454485518496e-14 -1.381739223423856096e-15 2.052447637129655920e-15 -3.926031629659532485e-16 0.000000000000000000e+00 0.000000000000000000e+00 0.000000000000000000e+00 0.000000000000000000e+00 -3.062860739228249193e-15 -1.830079322699026760e-14 0.000000000000000000e+00 -3.206052498222831321e-15 -7.019545525977583512e-15 3.563409706737413751e-01 -5.536887135732501131e-01 -1.407974175390918736e+00 2.085011835568512772e+00 -1.261100400577800151e+00 -2.250206160158876756e+00 -2.919788295001650158e-01 -1.777803378017998703e+00 1.592730307358897868e+00 3.695322615936540989e-01 -8.539327827757725586e-01 2.040210012379750637e+00 0.000000000000000000e+00 0.000000000000000000e+00 0.000000000000000000e+00 -3.720607487409320029e-15 3.827566795689936542e-16 0.000000000000000000e+00 -2.486513419760556679e-15 4.528724586073412420e-15 0.000000000000000000e+00 -4.105886370495834784e-16 9.952184281741876616e-16 -1.293872136913015177e-15 0.000000000000000000e+00 0.000000000000000000e+00 0.000000000000000000e+00 0.000000000000000000e+00 1.235885640387219325e-15 -3.312519284551784533e-17 0.000000000000000000e+00 2.423326799881490274e-15 -5.344637984545573103e-15 -4.105886370495834784e-16 9.952184281741876616e-16 -1.293872136913015177e-15 0.000000000000000000e+00 2.899570433758228825e-16 -2.136781146118151735e-15 0.000000000000000000e+00 1.391047752992292743e-16 -1.034960655477951140e-15 0.000000000000000000e+00 -1.698136963904188163e-15 5.781243423002321400e-16 -4.105886370495834784e-16 9.952184281741876616e-16 -1.293872136913015177e-15 0.000000000000000000e+00 0.000000000000000000e+00 0.000000000000000000e+00 0.000000000000000000e+00 4.746084397774701482e-16 1.126794515688509012e-15 0.000000000000000000e+00 1.145005840071915717e-15 4.740393679286625027e-16 -4.105886370495834784e-16 9.952184281741876616e-16 -1.293872136913015177e-15 0.000000000000000000e+00 0.000000000000000000e+00 0.000000000000000000e+00 0.000000000000000000e+00 -6.434511459789868597e-16 -1.461719898781011240e-16 0.000000000000000000e+00 -3.941409072770071809e-16 -4.071669207357342590e-16
